# This file uses centimeters as units for non-parametric coordinates.

mtllib Knife.mtl
g default
v 19.775736 -0.451495 0.361856
v 19.662329 -0.451879 0.778771
v 19.353357 -0.452308 1.080792
v 19.353426 0.443594 1.079111
v 19.662348 0.448819 0.777035
v 19.775736 0.450963 0.360083
v 19.775736 0.451495 -0.361856
v 19.662317 0.449964 -0.778594
v 19.353336 0.445175 -1.080355
v 19.775736 -0.450963 -0.360083
v 19.353361 -0.450725 -1.079044
v 19.662331 -0.450734 -0.777008
v 4.058029 0.197916 -0.832274
v 4.063824 0.196161 0.847815
v 4.063963 -0.462346 0.846413
v 4.050625 -0.461548 -0.843153
v 18.975353 0.223515 -1.143326
v 19.088308 0.383133 -1.033188
v 19.243031 0.443240 -0.882140
v 18.934038 0.006600 -1.183427
v 5.763420 0.109102 -1.826766
v 5.376825 0.469055 -1.613261
v 5.760339 0.540297 -1.387818
v 5.756733 0.482875 -1.605141
v 5.757858 0.325335 -1.765514
v 19.088125 0.381663 1.032551
v 18.975283 0.221943 1.143160
v 18.934027 0.004873 1.183865
v 19.353186 0.443590 1.079171
v 19.242825 0.441949 0.881183
v 5.848938 0.105723 1.844321
v 5.844084 0.321684 1.786684
v 5.837603 0.479863 1.628816
v 5.831231 0.537893 1.413000
v 5.470628 0.466206 1.636443
v 18.975395 -0.236602 1.143833
v 19.088444 -0.394560 1.033593
v 19.242790 -0.452236 0.882815
v 19.353153 -0.452308 1.080843
v 18.934023 -0.020812 1.183911
v 5.854489 -0.775062 1.411743
v 5.857723 -0.717317 1.627687
v 5.858273 -0.559346 1.785869
v 5.855992 -0.343469 1.843911
v 5.489363 -0.710311 1.636531
v 19.088371 -0.393094 -1.032095
v 18.975370 -0.235034 -1.142743
v 18.934036 -0.019085 -1.183401
v 19.353148 -0.450725 -1.079097
v 19.242783 -0.450947 -0.881080
v 5.778060 -0.341931 -1.834326
v 5.786161 -0.557216 -1.779864
v 5.794337 -0.715560 -1.624173
v 5.800353 -0.773704 -1.409784
v 5.416973 -0.709672 -1.637286
v 3.608315 -0.010174 -1.940752
v 3.597457 -0.002548 1.984669
v 3.591393 -0.296097 1.980546
v 3.590570 -0.287989 -1.940103
v -20.676146 -0.230246 0.265688
v -20.572964 -0.230432 -0.062402
v -20.406725 -0.230590 -0.373784
v -20.181469 -0.230715 -0.660890
v -19.902676 -0.230805 -0.916737
v -19.577120 -0.230858 -1.135108
v -19.212715 -0.230872 -1.310692
v -18.818325 -0.230847 -1.439221
v -18.403536 -0.230784 -1.517570
v -17.978430 -0.230684 -1.543835
v -20.713762 -0.230036 0.602509
v -18.407923 -0.151116 -1.504572
v -18.822027 -0.151498 -1.425892
v -19.215616 -0.151816 -1.297006
v -19.579077 -0.152059 -1.121062
v -19.903534 -0.152224 -0.902357
v -20.181059 -0.152306 -0.646234
v -20.404877 -0.152302 -0.358949
v -20.569517 -0.152213 -0.047518
v -20.670961 -0.152041 0.280452
v -20.706730 -0.151790 0.616949
v -17.983421 -0.150677 -1.531124
v -20.717556 -0.229846 0.894739
v -19.913494 -0.229365 1.540021
v -20.040161 -0.229380 1.531908
v -20.163643 -0.229405 1.508095
v -20.280865 -0.229439 1.469177
v -20.388908 -0.229482 1.416122
v -20.485083 -0.229532 1.350250
v -20.566996 -0.229588 1.273201
v -20.632607 -0.229649 1.186895
v -20.680283 -0.229714 1.093479
v -20.708836 -0.229780 0.995278
v -20.708776 -0.151554 0.893152
v -20.699509 -0.151458 0.993834
v -20.670446 -0.151341 1.092118
v -20.622307 -0.151209 1.185571
v -20.556282 -0.151063 1.271880
v -20.474007 -0.150907 1.348909
v -20.377514 -0.150745 1.414752
v -20.269196 -0.150581 1.467779
v -20.151730 -0.150420 1.506678
v -20.028025 -0.150265 1.530487
v -19.901142 -0.150120 1.538616
vt 0.732059 0.250000
vt 0.678522 -0.000000
vt 0.767953 -0.000000
vt 0.821495 0.250000
vt 0.622034 0.542477
vt 0.536546 0.537840
vt 0.536596 0.199871
vt 0.621774 0.231472
vt 0.625000 0.357059
vt 0.625000 0.446495
vt 0.619434 0.070928
vt 0.536610 0.115166
vt 0.536632 0.057210
vt 0.619415 0.063560
vt 0.620079 0.656608
vt 0.536384 0.662724
vt 0.536408 0.613105
vt 0.620080 0.651599
vt 0.536445 0.732064
vt 0.622011 0.765500
vt 0.625000 0.857047
vt 0.625000 0.946478
vt 0.619816 0.987060
vt 0.536642 0.980465
vt 0.622262 -0.000000
vt 0.625000 0.000000
vt 0.678530 0.250000
vt 0.625000 0.250000
vt 0.875000 0.168682
vt 0.875000 0.250000
vt 0.821476 -0.000000
vt 0.875000 0.000000
vt 0.625000 1.000000
vt 0.622262 1.000000
vt 0.622261 1.000000
vt 0.624997 0.749987
vt 0.625000 0.750000
vt 0.625000 0.803524
vt 0.525485 0.181273
vt 0.525965 0.576968
vt 0.525262 0.000000
vt 0.525262 1.000000
vt 0.524898 0.737476
vt 0.534416 0.181831
vt 0.534843 0.577506
vt 0.534297 0.000000
vt 0.534171 0.736268
vt 0.625000 0.581318
vt 0.625000 0.500000
vt 0.624997 0.249964
vt 0.625000 0.303530
vt 0.622261 0.000000
vt 0.534297 1.000000
vt 0.621080 0.572674
vt 0.536464 0.563160
vt 0.620357 0.609405
vt 0.536416 0.588234
vt 0.619868 0.134180
vt 0.536590 0.143612
vt 0.620721 0.188436
vt 0.536584 0.171845
vt 0.618150 1.000000
vt 0.536664 1.000000
vt 0.618150 -0.000000
vt 0.619524 -0.000000
vt 0.536640 0.028571
vt 0.536664 0.000000
vt 0.620342 0.698833
vt 0.536378 0.686375
vt 0.621056 0.735653
vt 0.536405 0.709491
vt 0.619524 1.000000
vt 0.515697 0.000000
vt 0.515575 0.738690
vt 0.433430 0.667581
vt 0.434499 0.636170
vt 0.435544 0.617577
vt 0.436574 0.606811
vt 0.437594 0.600877
vt 0.438608 0.598011
vt 0.439617 0.597235
vt 0.440623 0.598102
vt 0.441626 0.600580
vt 0.442625 0.605039
vt 0.432320 0.720062
vt 0.441644 0.584535
vt 0.440631 0.585122
vt 0.439621 0.584083
vt 0.438613 0.581396
vt 0.437610 0.576624
vt 0.436613 0.568807
vt 0.435624 0.556214
vt 0.434651 0.535905
vt 0.433701 0.502991
vt 0.432792 0.449397
vt 0.442660 0.581946
vt 0.515697 1.000000
vt 0.516513 0.576396
vt 0.516468 0.180709
vt 0.431276 0.744745
vt 0.431021 0.003907
vt 0.431021 1.000000
vt 0.430563 1.000000
vt 0.430563 0.003928
vt 0.430105 1.000000
vt 0.430105 0.003949
vt 0.429647 1.000000
vt 0.429647 0.003970
vt 0.429190 1.000000
vt 0.429190 0.003991
vt 0.428732 1.000000
vt 0.428732 0.004012
vt 0.429307 0.914469
vt 0.429842 0.849774
vt 0.430345 0.801801
vt 0.430821 0.767512
vt 0.431879 0.426688
vt 0.431510 0.404888
vt 0.431164 0.371435
vt 0.430845 0.324190
vt 0.430558 0.260161
vt 0.430312 0.175322
vt 0.430652 0.162695
vt 0.431038 0.155159
vt 0.431467 0.152449
vt 0.431938 0.154446
vt 0.432450 0.161182
vn 0.995123 0.000188 0.098641
vn 0.995064 0.000189 0.099237
vn 0.995104 -0.000182 -0.098838
vn 0.995079 -0.000182 -0.099082
vn 0.006843 0.999950 -0.007354
vn -0.024291 0.999504 -0.020038
vn -0.023243 0.999493 0.021767
vn 0.006859 0.999939 0.008709
vn 0.006662 0.999978 0.000699
vn 0.006662 0.999978 0.000699
vn 0.059224 0.106806 0.992514
vn -0.119637 0.075138 0.989970
vn -0.118160 -0.077873 0.989936
vn 0.060955 -0.105040 0.992598
vn 0.059766 -0.093355 -0.993838
vn -0.118973 -0.064822 -0.990779
vn -0.121748 0.088946 -0.988568
vn 0.057560 0.117909 -0.991355
vn -0.007378 -0.999737 -0.021702
vn 0.023736 -0.999678 -0.008937
vn 0.023541 -0.999723 -0.000858
vn 0.023541 -0.999723 -0.000858
vn 0.023737 -0.999693 0.007166
vn -0.006573 -0.999775 0.020175
vn 0.699073 0.001327 0.715049
vn 0.699073 0.001327 0.715049
vn 0.699073 0.001327 0.715049
vn 0.699073 0.001327 0.715049
vn 0.964946 0.000501 0.262448
vn 0.964946 0.000501 0.262448
vn 0.698873 -0.001139 -0.715245
vn 0.698873 -0.001139 -0.715245
vn 0.698873 -0.001139 -0.715245
vn 0.698873 -0.001139 -0.715245
vn 0.964922 -0.000483 -0.262536
vn 0.964922 -0.000483 -0.262536
vn 0.000668 -1.000000 -0.000738
vn 0.000668 -1.000000 -0.000738
vn -0.019407 -0.999757 0.010450
vn -0.019379 -0.999741 -0.011923
vn 0.000692 -1.000000 -0.000737
vn 0.000692 -1.000000 -0.000737
vn -0.008121 0.999963 -0.002867
vn -0.008095 0.999963 -0.002867
vn -0.255544 0.966792 0.003300
vn -0.255278 0.966862 0.003308
vn 0.111995 -0.007097 0.993683
vn 0.107428 -0.007074 0.994188
vn -0.240177 -0.008142 0.970695
vn -0.246419 -0.008097 0.969130
vn -0.221597 -0.975137 0.001882
vn -0.004227 -0.999990 -0.001661
vn -0.004239 -0.999990 -0.001661
vn -0.221655 -0.975123 0.001881
vn 0.112819 0.029384 -0.993181
vn 0.129057 0.028730 -0.991221
vn -0.272546 0.000963 -0.962142
vn -0.257918 0.000646 -0.966166
vn -0.192580 0.981254 0.007390
vn -0.192572 0.981279 0.002831
vn -0.486131 -0.007001 0.873858
vn -0.486169 -0.005132 0.873850
vn -0.500439 0.007063 -0.865743
vn -0.500361 0.005061 -0.865802
vn -0.043493 0.998949 -0.014452
vn -0.016215 0.999868 0.000737
vn 0.229671 0.009170 -0.973225
vn 0.240120 -0.001403 -0.970742
vn 0.236548 -0.005080 -0.971607
vn -0.036215 0.999273 0.011903
vn -0.016192 0.999869 0.000737
vn -0.016192 0.999869 0.000737
vn 0.236970 -0.001884 0.971515
vn 0.240547 0.001801 0.970636
vn 0.240547 0.001801 0.970636
vn 0.236981 0.005413 0.971499
vn -0.173272 -0.984871 0.002270
vn -0.172985 -0.984911 0.005060
vn 0.018498 0.950272 -0.310871
vn 0.030400 0.818177 -0.574162
vn 0.033238 0.641626 -0.766297
vn 0.043997 0.479732 -0.876311
vn 0.041770 0.437000 -0.898491
vn 0.045701 0.474861 0.878873
vn 0.043467 0.432969 0.900360
vn 0.034788 0.637999 0.769251
vn 0.031425 0.819285 0.572525
vn 0.019198 0.949431 0.313387
vn 0.035234 -0.949117 0.312948
vn 0.045370 -0.817428 0.574241
vn 0.045584 -0.637252 0.769307
vn 0.053689 -0.472503 0.879692
vn 0.050825 -0.430233 0.901286
vn 0.053060 -0.467007 -0.882660
vn 0.050360 -0.420108 -0.906076
vn 0.045197 -0.633047 -0.772793
vn 0.050762 -0.632579 -0.772831
vn 0.035145 -0.948067 -0.316122
vn 0.035410 -0.948165 -0.315799
vn -0.279334 0.671355 -0.686480
vn -0.277731 0.671778 0.686717
vn -0.269767 -0.673429 0.688272
vn -0.268845 -0.673926 -0.688146
vn 0.013858 -0.700677 -0.713344
vn -0.993347 0.099543 -0.057913
vn -0.992696 0.099094 -0.068817
vn -0.994302 0.105388 0.016001
vn -0.994326 0.105277 0.015273
vn -0.018932 -0.006295 0.999801
vn -0.018973 -0.006264 0.999800
vn -0.002667 -0.999995 -0.001664
vn -0.002667 -0.999995 -0.001664
vn -0.002647 -0.999995 -0.001649
vn -0.002654 -0.999995 -0.001654
vn -0.019070 0.035332 -0.999194
vn -0.019134 0.035511 -0.999186
vn -0.006215 0.999977 -0.002864
vn -0.006204 0.999977 -0.002859
vn -0.006237 0.999977 -0.002872
vn -0.006238 0.999976 -0.002872
vn -0.119651 0.153685 -0.980849
vn -0.125378 0.153512 -0.980160
vn -0.242070 0.149909 -0.958608
vn -0.248759 0.149698 -0.956927
vn -0.364885 0.145899 -0.919550
vn -0.372498 0.145639 -0.916534
vn -0.487422 0.141486 -0.861627
vn -0.495867 0.141160 -0.856849
vn -0.607909 0.136413 -0.782201
vn -0.616982 0.135987 -0.775139
vn -0.722947 0.130383 -0.678489
vn -0.732232 0.129823 -0.668567
vn -0.827057 0.123120 -0.548469
vn -0.835837 0.122380 -0.535163
vn -0.912710 0.114338 -0.392284
vn -0.919926 0.113370 -0.375345
vn -0.971317 0.104028 -0.213825
vn -0.975687 0.102839 -0.193545
vn 0.000276 -1.000000 0.000654
vn 0.000276 -1.000000 0.000654
vn 0.000276 -1.000000 0.000654
vn 0.000276 -1.000000 0.000654
vn 0.000276 -1.000000 0.000654
vn 0.000276 -1.000000 0.000654
vn 0.000276 -1.000000 0.000654
vn 0.000276 -1.000000 0.000654
vn 0.000276 -1.000000 0.000654
vn -0.001088 0.999999 -0.000861
vn -0.001088 0.999999 -0.000861
vn -0.001088 0.999999 -0.000861
vn -0.001088 0.999999 -0.000861
vn -0.001088 0.999999 -0.000861
vn -0.001088 0.999999 -0.000861
vn -0.001088 0.999999 -0.000861
vn -0.001088 0.999999 -0.000861
vn -0.001088 0.999999 -0.000861
vn -0.975450 0.119350 0.185076
vn -0.975336 0.119366 0.185666
vn -0.922191 0.121840 0.367040
vn -0.920820 0.121833 0.370469
vn -0.840763 0.119031 0.528157
vn -0.837409 0.118840 0.533501
vn -0.739427 0.111782 0.663892
vn -0.733902 0.111315 0.670072
vn -0.625703 0.101090 0.773483
vn -0.618206 0.100316 0.779589
vn -0.505254 0.087818 0.858491
vn -0.496151 0.086749 0.863892
vn -0.381728 0.072613 0.921418
vn -0.371399 0.071277 0.925733
vn -0.257133 0.055903 0.964758
vn -0.245898 0.054335 0.967772
vn -0.132335 0.037928 0.990479
vn -0.120442 0.036153 0.992062
vn 0.000076 -1.000000 0.000651
vn 0.000076 -1.000000 0.000651
vn 0.000076 -1.000000 0.000651
vn 0.000076 -1.000000 0.000651
vn 0.000076 -1.000000 0.000651
vn 0.000076 -1.000000 0.000651
vn 0.000076 -1.000000 0.000651
vn 0.000076 -1.000000 0.000651
vn 0.000076 -1.000000 0.000651
vn -0.001088 0.999999 -0.000861
vn -0.001088 0.999999 -0.000861
vn -0.001088 0.999999 -0.000861
vn -0.001088 0.999999 -0.000861
vn -0.001088 0.999999 -0.000861
vn -0.001088 0.999999 -0.000861
vn -0.001088 0.999999 -0.000861
vn -0.001088 0.999999 -0.000861
vn -0.001088 0.999999 -0.000861
s 1
g pSphere2
usemtl initialShadingGroup
f 6/1/1 1/2/2 10/3/3 7/4/4
s 2
f 19/5/5 23/6/6 34/7/7 30/8/8 6/9/9 7/10/10
f 28/11/11 31/12/12 44/13/13 40/14/14
f 48/15/15 51/16/16 21/17/17 20/18/18
f 54/19/19 50/20/20 10/21/21 1/22/22 38/23/23 41/24/24
s off
f 3/25/25 2/26/26 5/27/27 4/28/28
s 1
f 2/26/29 1/2/2 6/1/1 5/27/30
s off
f 9/29/31 8/30/32 12/31/33 11/32/34
s 1
f 8/30/35 7/4/4 10/3/3 12/31/36
s 2
f 1/22/22 2/33/37 3/34/38 39/35/39 38/23/23
f 10/21/21 50/20/20 49/36/40 11/37/41 12/38/42
f 56/98/43 57/99/44 14/39/45 13/40/46
f 57/99/47 58/73/48 15/41/49 14/39/50
f 15/42/51 58/97/52 59/74/53 16/43/54
f 59/74/55 56/98/56 13/40/57 16/43/58
f 13/40/46 14/39/45 35/44/59 34/7/7 23/6/6 22/45/60
f 14/39/50 15/41/49 45/46/61 44/13/13 31/12/12 35/44/62
f 16/43/58 13/40/57 22/45/63 21/17/17 51/16/16 55/47/64
f 9/48/65 19/5/5 7/10/10 8/49/66
f 20/18/18 9/48/67 11/37/68 49/36/69 48/15/15
f 30/8/8 29/50/70 4/28/71 5/51/72 6/9/9
f 40/14/14 39/52/73 3/25/74 4/28/75 29/50/76 28/11/11
f 55/47/77 54/19/19 41/24/24 45/53/78 15/42/51 16/43/54
f 19/5/5 18/54/79 24/55/80 23/6/6
f 18/54/81 17/56/82 25/57/83 24/55/80
f 17/56/82 20/18/18 21/17/17 25/57/83
f 28/11/11 27/58/84 32/59/85 31/12/12
f 27/58/84 26/60/86 33/61/87 32/59/85
f 26/60/88 30/8/8 34/7/7 33/61/87
f 38/23/23 37/62/89 42/63/90 41/24/24
f 37/64/91 36/65/92 43/66/93 42/67/90
f 36/65/92 40/14/14 44/13/13 43/66/93
f 48/15/15 47/68/94 52/69/95 51/16/16
f 47/68/94 46/70/96 53/71/97 52/69/95
f 46/70/98 50/20/20 54/19/19 53/71/99
f 9/48/67 20/18/18 17/56/82
f 9/48/100 17/56/82 18/54/81
f 9/48/65 18/54/79 19/5/5
f 22/45/60 23/6/6 24/55/80
f 22/45/60 24/55/80 25/57/83
f 22/45/63 25/57/83 21/17/17
f 29/50/70 30/8/8 26/60/88
f 29/50/101 26/60/86 27/58/84
f 29/50/76 27/58/84 28/11/11
f 35/44/62 31/12/12 32/59/85
f 35/44/59 32/59/85 33/61/87
f 35/44/59 33/61/87 34/7/7
f 39/52/73 40/14/14 36/65/92
f 39/35/102 36/72/92 37/62/91
f 39/35/39 37/62/89 38/23/23
f 45/53/78 41/24/24 42/63/90
f 45/46/78 42/67/90 43/66/93
f 45/46/61 43/66/93 44/13/13
f 49/36/40 50/20/20 46/70/98
f 49/36/103 46/70/96 47/68/94
f 49/36/69 47/68/94 48/15/15
f 55/47/64 51/16/16 52/69/95
f 55/47/104 52/69/95 53/71/97
f 55/47/77 53/71/99 54/19/19
f 80/95/105 70/85/106 82/100/107 93/117/108
f 103/127/109 83/101/110 58/73/48 57/99/47
f 59/74/53 58/97/52 83/102/111 82/100/112 70/85/113 69/84/114
f 69/84/115 81/96/116 56/98/56 59/74/55
f 81/96/117 80/95/118 93/117/119 103/127/120 57/99/44 56/98/43
f 69/84/115 68/83/121 71/86/122 81/96/116
f 68/83/121 67/82/123 72/87/124 71/86/122
f 67/82/123 66/81/125 73/88/126 72/87/124
f 66/81/125 65/80/127 74/89/128 73/88/126
f 65/80/127 64/79/129 75/90/130 74/89/128
f 64/79/129 63/78/131 76/91/132 75/90/130
f 63/78/131 62/77/133 77/92/134 76/91/132
f 62/77/133 61/76/135 78/93/136 77/92/134
f 61/76/135 60/75/137 79/94/138 78/93/136
f 60/75/137 70/85/106 80/95/105 79/94/138
f 60/75/139 61/76/140 62/77/141 63/78/142 64/79/143 65/80/144 66/81/145 67/82/146 68/83/147 69/84/114 70/85/113
f 71/86/148 72/87/149 73/88/150 74/89/151 75/90/152 76/91/153 77/92/154 78/93/155 79/94/156 80/95/118 81/96/117
f 82/100/107 92/116/157 94/118/158 93/117/108
f 92/116/157 91/115/159 95/119/160 94/118/158
f 91/115/159 90/114/161 96/120/162 95/119/160
f 90/114/161 89/113/163 97/121/164 96/120/162
f 89/113/163 88/111/165 98/122/166 97/121/164
f 88/112/165 87/110/167 99/123/168 98/122/166
f 87/110/167 86/108/169 100/124/170 99/123/168
f 86/108/169 85/106/171 101/125/172 100/124/170
f 85/106/171 84/104/173 102/126/174 101/125/172
f 84/104/173 83/101/110 103/127/109 102/126/174
f 82/100/112 83/102/111 84/103/175 85/105/176 86/107/177 87/109/178 88/111/179 89/113/180 90/114/181 91/115/182 92/116/183
f 93/117/119 94/118/184 95/119/185 96/120/186 97/121/187 98/122/188 99/123/189 100/124/190 101/125/191 102/126/192 103/127/120
